<svg xmlns="http://www.w3.org/2000/svg" xmlns:xlink="http://www.w3.org/1999/xlink" width="80" zoomAndPan="magnify" viewBox="0 0 60 60" height="80" preserveAspectRatio="xMidYMid meet" version="1.0"><defs><clipPath id="c9de428d7d"><path d="M 6.011719 0 L 53.238281 0 L 53.238281 59.996094 L 6.011719 59.996094 Z M 6.011719 0 " clip-rule="nonzero"/></clipPath></defs><g clip-path="url(#c9de428d7d)"><path fill="#224f08" d="M 47.046875 6.96875 C 40.507812 0.199219 31.074219 0 29.992188 0 L 29.257812 0 C 28.175781 0 18.742188 0.199219 12.207031 6.96875 C 7.851562 11.480469 5.773438 17.851562 6.035156 25.898438 C 6.308594 34.332031 8.972656 41.878906 13.949219 48.328125 C 18.101562 53.707031 22.894531 56.980469 25.382812 58.457031 C 26.574219 59.160156 27.859375 59.664062 29.203125 59.953125 C 29.339844 59.984375 29.480469 59.996094 29.625 59.996094 C 29.769531 59.996094 29.910156 59.984375 30.046875 59.953125 C 30.667969 59.820312 31.285156 59.640625 31.878906 59.414062 C 32.566406 59.152344 33.234375 58.832031 33.867188 58.457031 C 36.355469 56.980469 41.148438 53.707031 45.300781 48.328125 C 50.277344 41.878906 52.941406 34.332031 53.214844 25.898438 C 53.476562 17.851562 51.398438 11.480469 47.046875 6.96875 " fill-opacity="1" fill-rule="nonzero"/></g><path fill="#52ed00" d="M 52.234375 24.558594 C 52.234375 24.992188 52.226562 25.425781 52.210938 25.867188 C 51.597656 44.78125 38.820312 54.351562 33.359375 57.589844 C 32.773438 57.933594 32.15625 58.230469 31.523438 58.472656 C 30.976562 58.679688 30.410156 58.847656 29.835938 58.96875 C 29.703125 59 29.546875 59 29.414062 58.96875 C 28.171875 58.703125 26.988281 58.238281 25.894531 57.589844 C 20.429688 54.351562 7.652344 44.78125 7.039062 25.867188 C 6.785156 18.101562 8.765625 11.976562 12.925781 7.671875 C 19.175781 1.199219 28.21875 1.003906 29.257812 1.003906 L 29.992188 1.003906 C 31.03125 1.003906 40.074219 1.199219 46.324219 7.667969 C 50.246094 11.734375 52.234375 17.410156 52.234375 24.558594 " fill-opacity="1" fill-rule="nonzero"/><path fill="#47c100" d="M 49.039062 29.375 C 48.507812 45.628906 37.53125 53.855469 32.832031 56.636719 C 32.332031 56.933594 31.800781 57.191406 31.257812 57.398438 C 30.789062 57.574219 30.300781 57.71875 29.804688 57.824219 C 29.691406 57.847656 29.558594 57.847656 29.445312 57.824219 C 28.378906 57.597656 27.359375 57.195312 26.417969 56.636719 C 21.722656 53.855469 10.742188 45.628906 10.214844 29.375 C 9.996094 22.699219 11.699219 17.4375 15.273438 13.734375 C 20.644531 8.171875 28.417969 8.007812 29.3125 8.007812 L 29.941406 8.007812 C 30.832031 8.007812 38.605469 8.171875 43.976562 13.734375 C 47.347656 17.226562 49.054688 22.105469 49.054688 28.25 C 49.054688 28.621094 49.050781 28.996094 49.039062 29.375 Z M 46.324219 7.667969 C 40.074219 1.199219 31.03125 1.003906 29.992188 1.003906 L 29.257812 1.003906 C 28.21875 1.003906 19.175781 1.199219 12.925781 7.671875 C 8.765625 11.976562 6.785156 18.101562 7.039062 25.867188 C 7.652344 44.78125 20.429688 54.351562 25.894531 57.589844 C 26.988281 58.238281 28.171875 58.703125 29.414062 58.96875 C 29.546875 59 29.703125 59 29.835938 58.96875 C 30.410156 58.847656 30.976562 58.679688 31.523438 58.472656 C 32.15625 58.230469 32.773438 57.933594 33.359375 57.589844 C 38.820312 54.351562 51.597656 44.78125 52.210938 25.867188 C 52.226562 25.425781 52.234375 24.992188 52.234375 24.558594 C 52.234375 17.410156 50.246094 11.734375 46.324219 7.667969 " fill-opacity="1" fill-rule="nonzero"/><path fill="#141413" d="M 26.96875 43.363281 C 26.96875 43.363281 26.96875 43.367188 26.96875 43.367188 C 26.871094 43.796875 26.53125 44.128906 26.101562 44.210938 C 24.273438 44.578125 22.34375 44.574219 20.410156 44.140625 C 12.972656 42.476562 8.289062 35.078125 9.945312 27.621094 C 9.949219 27.617188 9.949219 27.613281 9.949219 27.613281 C 10.042969 27.183594 10.386719 26.855469 10.8125 26.769531 C 12.640625 26.402344 14.570312 26.40625 16.507812 26.839844 C 23.945312 28.503906 28.628906 35.902344 26.96875 43.363281 " fill-opacity="1" fill-rule="nonzero"/><path fill="#141413" d="M 32.28125 43.363281 C 32.28125 43.363281 32.28125 43.367188 32.285156 43.367188 C 32.378906 43.796875 32.71875 44.128906 33.148438 44.210938 C 34.976562 44.578125 36.90625 44.574219 38.839844 44.140625 C 46.277344 42.476562 50.964844 35.078125 49.304688 27.621094 C 49.300781 27.617188 49.300781 27.613281 49.300781 27.613281 C 49.207031 27.183594 48.867188 26.855469 48.4375 26.769531 C 46.609375 26.402344 44.679688 26.40625 42.742188 26.839844 C 35.304688 28.503906 30.621094 35.902344 32.28125 43.363281 " fill-opacity="1" fill-rule="nonzero"/><path fill="#224f08" d="M 33.0625 52.839844 C 32.976562 52.839844 32.894531 52.871094 32.832031 52.921875 C 31.863281 53.6875 30.746094 54.09375 29.601562 54.09375 C 28.464844 54.09375 27.355469 53.691406 26.402344 52.933594 C 26.339844 52.882812 26.257812 52.855469 26.175781 52.855469 C 26.070312 52.855469 25.96875 52.902344 25.902344 52.984375 C 25.839844 53.058594 25.8125 53.15625 25.820312 53.253906 C 25.832031 53.347656 25.878906 53.4375 25.953125 53.496094 C 27.207031 54.5 28.445312 55.007812 29.628906 55.007812 C 30.808594 55.007812 32.039062 54.5 33.289062 53.503906 C 33.371094 53.441406 33.417969 53.351562 33.429688 53.253906 C 33.4375 53.152344 33.410156 53.054688 33.34375 52.976562 C 33.273438 52.890625 33.171875 52.839844 33.0625 52.839844 " fill-opacity="1" fill-rule="nonzero"/><path fill="#224f08" d="M 26.683594 31.988281 C 26.949219 32.351562 26.976562 32.386719 27.046875 32.386719 L 27.074219 32.386719 L 27.132812 32.351562 L 27.140625 32.3125 C 27.175781 32.160156 26.566406 31.210938 26.5625 31.199219 C 26.121094 30.511719 25.527344 29.75 24.941406 29.117188 C 24.328125 28.457031 23.605469 27.804688 22.953125 27.324219 L 22.84375 27.238281 L 22.214844 26.796875 L 21.898438 26.597656 L 21.574219 26.40625 C 21.386719 26.308594 21.117188 26.167969 20.765625 25.992188 C 20.683594 25.957031 20.597656 25.917969 20.507812 25.878906 C 20.242188 25.757812 19.9375 25.621094 19.617188 25.503906 C 19.164062 25.335938 18.707031 25.191406 18.257812 25.070312 C 17.417969 24.84375 16.46875 24.683594 15.65625 24.632812 C 15.398438 24.613281 15.148438 24.605469 14.933594 24.605469 C 14.398438 24.605469 14.375 24.644531 14.375 24.730469 C 14.371094 24.835938 14.414062 24.839844 14.929688 24.910156 C 15.117188 24.933594 15.347656 24.964844 15.617188 25.003906 C 16.101562 25.078125 17.070312 25.25 18.109375 25.582031 C 18.539062 25.71875 18.972656 25.875 19.398438 26.054688 C 19.691406 26.175781 19.96875 26.3125 20.214844 26.433594 C 20.308594 26.480469 20.402344 26.523438 20.484375 26.566406 C 20.847656 26.761719 21.082031 26.894531 21.242188 26.984375 L 21.550781 27.179688 L 21.855469 27.359375 L 22.472656 27.761719 L 22.582031 27.839844 C 23.214844 28.277344 23.9375 28.875 24.558594 29.488281 C 25.328125 30.242188 25.953125 31.019531 26.257812 31.417969 C 26.425781 31.636719 26.566406 31.832031 26.683594 31.988281 " fill-opacity="1" fill-rule="nonzero"/><path fill="#224f08" d="M 44.875 24.730469 C 44.875 24.644531 44.851562 24.605469 44.316406 24.605469 C 44.101562 24.605469 43.851562 24.613281 43.59375 24.632812 C 42.78125 24.683594 41.832031 24.84375 40.992188 25.070312 C 40.542969 25.191406 40.085938 25.335938 39.636719 25.503906 C 39.3125 25.621094 39.007812 25.757812 38.742188 25.878906 C 38.652344 25.917969 38.566406 25.957031 38.476562 25.996094 C 38.132812 26.167969 37.863281 26.308594 37.671875 26.410156 L 37.351562 26.597656 L 37.03125 26.796875 L 36.402344 27.242188 L 36.296875 27.320312 C 35.644531 27.804688 34.921875 28.457031 34.3125 29.117188 C 33.722656 29.75 33.132812 30.511719 32.6875 31.199219 C 32.683594 31.210938 32.074219 32.160156 32.109375 32.3125 L 32.121094 32.355469 L 32.152344 32.375 L 32.179688 32.386719 L 32.203125 32.386719 C 32.273438 32.386719 32.300781 32.351562 32.566406 31.988281 C 32.683594 31.832031 32.824219 31.636719 32.996094 31.417969 C 33.296875 31.019531 33.921875 30.242188 34.691406 29.488281 C 35.3125 28.875 36.035156 28.277344 36.671875 27.839844 L 36.773438 27.765625 L 37.390625 27.359375 L 37.703125 27.175781 C 37.714844 27.167969 37.824219 27.101562 38.003906 26.988281 C 38.167969 26.894531 38.402344 26.761719 38.761719 26.566406 C 38.847656 26.523438 38.941406 26.480469 39.035156 26.433594 C 39.28125 26.3125 39.558594 26.175781 39.851562 26.054688 C 40.277344 25.875 40.710938 25.71875 41.140625 25.582031 C 42.179688 25.25 43.148438 25.078125 43.632812 25.003906 C 43.902344 24.964844 44.132812 24.933594 44.320312 24.910156 C 44.835938 24.839844 44.878906 24.835938 44.875 24.730469 " fill-opacity="1" fill-rule="nonzero"/><path fill="#575756" d="M 10.832031 28.496094 C 10.683594 28.507812 10.628906 29.746094 10.695312 30.828125 C 10.910156 34.269531 12.40625 36.75 12.792969 37.367188 C 13.269531 38.117188 14.355469 39.800781 16.394531 41.207031 C 18.84375 42.894531 21.410156 43.304688 23.109375 43.371094 C 23.304688 43.378906 23.347656 43.101562 23.160156 43.050781 C 22.9375 42.992188 22.703125 42.925781 22.457031 42.851562 C 21.246094 42.480469 18.839844 41.714844 16.484375 39.742188 C 15.734375 39.113281 13.222656 36.882812 11.929688 33.207031 C 11.058594 30.742188 11.035156 28.480469 10.832031 28.496094 " fill-opacity="1" fill-rule="nonzero"/><path fill="#575756" d="M 48.433594 28.496094 C 48.582031 28.507812 48.636719 29.746094 48.570312 30.828125 C 48.355469 34.269531 46.863281 36.75 46.472656 37.367188 C 45.996094 38.117188 44.910156 39.800781 42.871094 41.207031 C 40.417969 42.894531 37.855469 43.304688 36.15625 43.371094 C 35.960938 43.378906 35.917969 43.101562 36.109375 43.050781 C 36.328125 42.992188 36.5625 42.925781 36.808594 42.851562 C 38.019531 42.480469 40.425781 41.714844 42.78125 39.742188 C 43.53125 39.113281 46.042969 36.882812 47.339844 33.207031 C 48.207031 30.742188 48.230469 28.480469 48.433594 28.496094 " fill-opacity="1" fill-rule="nonzero"/></svg>